<svg xmlns="http://www.w3.org/2000/svg" version="1.1" xmlns:xlink="http://www.w3.org/1999/xlink" xmlns:svgjs="http://svgjs.dev/svgjs" width="2000" height="1500" viewBox="0 0 2000 1500"><rect width="2000" height="1500" fill="#ff5858"></rect><g transform="matrix(0.75,0,0,0.75,249.09380795735342,197.0026168886385)"><svg viewBox="0 0 396 292" data-background-color="#ff5858" preserveAspectRatio="xMidYMid meet" height="1474" width="2000" xmlns="http://www.w3.org/2000/svg" xmlns:xlink="http://www.w3.org/1999/xlink"><g id="tight-bounds" transform="matrix(1,0,0,1,0.24076530074125913,0.06534226007920552)"><svg viewBox="0 0 395.52 291.86931547984153" height="291.86931547984153" width="395.52"><g><svg viewBox="0 0 395.52 291.86931547984153" height="291.86931547984153" width="395.52"><g><svg viewBox="0 0 395.52 291.86931547984153" height="291.86931547984153" width="395.52"><g id="textblocktransform"><svg viewBox="0 0 395.52 291.86931547984153" height="291.86931547984153" width="395.52" id="textblock"><g><svg viewBox="0 0 395.52 291.86931547984153" height="291.86931547984153" width="395.52"><g transform="matrix(1,0,0,1,0,0)"><svg width="395.52" viewBox="25.665142059326172 -22.010120391845703 36.70929718017578 27.08919906616211" height="291.86931547984153" data-palette-color="#ffffff"><path d="M32.86-0.144l-7.195-0.283 0.847-21.583 7.194 0.282zM47.336-21.193l-13.247 18.034 0.411-10.492 5.351-7.816zM41.322-11.251l5.507 11.655-7.774-0.305-2.241-5.122zM50.387-19.431l-4.712 16.635 5.927 1.679-1.175 4.147-8.707-2.466-2.972-5.322 3.537-12.488 5.321-2.973zM50.255-5.022l1.166-4.118 9.506 2.692-3.264 11.527-6.139-1.738 2.099-7.409zM55.457-13.516l-5.148-1.458 1.174-4.147 8.439 2.39 2.452 5.174-0.591 2.088-6.918-1.959z" opacity="1" transform="matrix(1,0,0,1,0,0)" fill="#ffffff" class="wordmark-text-0" data-fill-palette-color="primary" id="text-0"></path></svg></g></svg></g></svg></g></svg></g><g></g></svg></g><defs></defs></svg><rect width="395.52" height="291.86931547984153" fill="none" stroke="none" visibility="hidden"></rect></g></svg></g></svg>